<?xml version="1.0" encoding="UTF-8" standalone="no"?>
<!-- Generator: Adobe Illustrator 19.0.0, SVG Export Plug-In . SVG Version: 6.00 Build 0)  -->

<svg
   version="1.1"
   id="Layer_1"
   x="0px"
   y="0px"
   viewBox="578 202 394 324"
   style="enable-background:new 578 202 394 324;"
   xml:space="preserve"
   sodipodi:docname="logo_loading2.svg"
   inkscape:version="1.4.2 (f4327f4, 2025-05-13)"
   xmlns:inkscape="http://www.inkscape.org/namespaces/inkscape"
   xmlns:sodipodi="http://sodipodi.sourceforge.net/DTD/sodipodi-0.dtd"
   xmlns="http://www.w3.org/2000/svg"
   xmlns:svg="http://www.w3.org/2000/svg"><defs
   id="defs26" /><sodipodi:namedview
   id="namedview26"
   pagecolor="#ffffff"
   bordercolor="#000000"
   borderopacity="0.25"
   inkscape:showpageshadow="2"
   inkscape:pageopacity="0.0"
   inkscape:pagecheckerboard="0"
   inkscape:deskcolor="#d1d1d1"
   inkscape:zoom="3.5573582"
   inkscape:cx="201.1324"
   inkscape:cy="166.55618"
   inkscape:window-width="1920"
   inkscape:window-height="1017"
   inkscape:window-x="-8"
   inkscape:window-y="-8"
   inkscape:window-maximized="1"
   inkscape:current-layer="Layer_1" />

<g
   id="g84"
   sodipodi:insensitive="true"><g
     transform="matrix(0.1,0,0,-0.1,0,486)"
     id="g26"
     style="display:none">
	<path
   d="m 7443,2353 c -27,-5 -53,-39 -53,-69 0,-29 45,-64 82,-64 42,0 82,43 73,78 -11,46 -48,66 -102,55 z"
   id="path1"
   sodipodi:nodetypes="csscc"
   sodipodi:insensitive="true" />
	<path
   d="m 7935,2353 c -29,-7 -56,-34 -72,-70 -18,-44 2,-92 50,-121 42,-26 58,-27 119,-5 l 48,17 97,-49 c 160,-80 170,-88 178,-137 3,-24 11,-58 17,-76 14,-46 4,-75 -41,-121 -41,-42 -50,-46 -125,-56 -62,-8 -116,-56 -116,-103 0,-41 39,-94 82,-110 32,-12 40,-12 73,4 52,24 75,66 75,135 0,55 1,58 50,103 50,47 51,47 113,45 34,-2 85,0 113,5 59,9 85,-1 149,-58 22,-20 43,-36 46,-36 11,0 29,-52 29,-85 0,-51 20,-84 61,-106 48,-24 90,-16 130,23 23,23 29,38 29,72 0,74 -43,109 -133,107 -55,-2 -84,12 -149,72 -58,53 -71,83 -56,131 9,28 8,44 -7,83 -24,64 -31,72 -90,99 -63,30 -87,30 -153,-1 -30,-14 -67,-25 -82,-25 -27,0 -175,66 -232,104 -15,10 -38,41 -52,70 -13,28 -33,59 -43,68 -20,18 -77,29 -108,21 z"
   id="path2"
   sodipodi:insensitive="true" />
	
	<path
   d="m 6912,2177 c -34,-19 -55,-55 -64,-111 -6,-44 -14,-57 -55,-93 -27,-23 -65,-50 -86,-59 -36,-17 -41,-17 -85,-1 -60,22 -87,21 -137,-2 -51,-23 -80,-56 -99,-108 -23,-66 -1,-125 66,-173 35,-26 50,-30 102,-30 112,0 176,67 176,186 1,79 6,88 93,153 54,41 60,43 107,38 64,-8 111,12 139,56 26,43 26,67 0,101 -40,51 -108,70 -157,43 z"
   id="path4"
   sodipodi:nodetypes="ccccccccscccccc"
   sodipodi:insensitive="true" />
	
	<path
   d="m 7512,1966 c -30,-16 -62,-65 -62,-95 0,-13 15,-42 33,-65 52,-63 59,-81 51,-132 -7,-46 -45,-104 -68,-104 -25,0 -84,-66 -95,-107 -11,-39 -13,-41 -68,-52 -75,-15 -75,-15 -116,14 -20,13 -54,29 -75,36 -33,9 -44,8 -73,-6 -49,-26 -69,-53 -69,-94 0,-43 20,-75 60,-96 59,-31 101,-17 166,52 40,42 42,43 105,43 h 65 l 58,-59 59,-60 -6,-98 c -8,-127 -21,-164 -74,-202 -53,-38 -71,-86 -49,-130 40,-76 125,-95 184,-41 50,45 53,89 13,146 -31,43 -32,47 -28,122 7,104 20,177 37,197 7,9 30,25 49,35 65,33 111,97 111,152 0,39 -40,105 -80,133 -75,52 -76,159 -1,240 55,60 57,103 5,151 -39,37 -88,45 -132,20 z"
   id="path6"
   sodipodi:insensitive="true" />
	<path
   d="m 7847,1930 c -40,-32 -43,-57 -11,-91 45,-47 102,-36 138,28 10,18 -13,60 -41,72 -35,16 -57,14 -86,-9 z"
   id="path7"
   sodipodi:insensitive="true" />
	
	
	
	
	
	<path
   d="m 7148,1763 c -30,-19 -52,-58 -42,-76 19,-33 50,-57 74,-57 24,0 55,24 74,57 10,18 -13,58 -44,76 -34,20 -29,20 -62,0 z"
   id="path13"
   sodipodi:insensitive="true" />
	
	
	<path
   d="m 8521,1514 c -28,-36 -26,-51 10,-85 36,-33 48,-35 89,-14 29,15 35,29 31,69 -5,59 -92,78 -130,30 z"
   id="path16"
   sodipodi:insensitive="true" />
	<path
   d="m 7945,1445 c -28,-27 -31,-45 -14,-78 16,-30 28,-37 65,-37 36,0 74,35 74,69 0,28 -46,71 -77,71 -13,0 -35,-11 -48,-25 z"
   id="path17"
   sodipodi:insensitive="true" />
	<path
   d="m 6255,1448 c -28,-16 -35,-28 -35,-65 0,-61 79,-85 125,-38 14,13 25,32 25,42 -1,48 -72,87 -115,61 z"
   id="path18"
   sodipodi:insensitive="true" />
	<path
   d="m 6711,1306 c -61,-65 29,-149 101,-94 31,24 33,64 4,92 -32,33 -75,34 -105,2 z"
   id="path19"
   sodipodi:insensitive="true" />
	<path
   d="m 8473,1249 c -17,-11 -38,-35 -48,-54 -15,-32 -15,-38 0,-69 9,-19 25,-42 35,-51 24,-22 89,-29 116,-13 80,49 109,60 142,54 43,-6 69,-29 77,-67 4,-16 26,-46 52,-69 43,-38 50,-40 108,-40 52,0 68,4 102,29 106,77 90,227 -31,282 -76,34 -136,17 -223,-62 -59,-55 -112,-49 -166,17 -53,64 -108,79 -164,43 z"
   id="path20"
   sodipodi:nodetypes="ccccccccsccccc"
   sodipodi:insensitive="true" />
	<path
   d="m 6395,1168 c -57,-31 -105,-101 -105,-153 0,-28 23,-83 47,-111 45,-52 141,-67 219,-34 42,18 70,9 155,-52 74,-53 76,-57 94,-142 10,-47 59,-86 110,-86 36,0 50,6 79,34 30,27 36,40 36,72 -1,73 -48,106 -148,102 l -68,-3 -72,54 c -94,69 -102,82 -102,159 0,53 -4,69 -27,98 -14,20 -43,44 -64,55 -42,21 -122,25 -154,7 z"
   id="path21"
   sodipodi:insensitive="true" />
	<path
   d="m 7890,1104 c -40,-27 -50,-45 -50,-90 0,-35 5,-47 35,-73 20,-17 47,-31 61,-31 41,0 92,-29 115,-66 11,-19 26,-40 32,-47 7,-7 27,-33 45,-59 44,-63 44,-114 1,-157 -27,-27 -37,-31 -88,-31 -58,0 -76,8 -128,56 -28,26 -80,40 -111,30 -11,-4 -34,-21 -51,-38 -55,-56 -32,-143 44,-168 47,-16 87,-5 136,35 66,56 161,59 203,8 12,-15 42,-48 67,-73 77,-78 77,-110 0,-187 -57,-57 -69,-89 -49,-129 16,-34 72,-74 104,-74 60,0 124,58 124,112 0,12 -16,43 -35,67 -40,50 -50,79 -40,113 11,34 32,55 79,78 45,21 74,54 95,108 11,26 11,41 1,76 -22,81 -110,136 -214,136 -61,0 -63,2 -160,145 -47,68 -48,71 -42,128 6,65 -7,104 -46,131 -29,21 -97,20 -128,0 z"
   id="path22"
   sodipodi:nodetypes="cscscccsscccccccscsscccccscccc"
   sodipodi:insensitive="true" />
	<path
   d="m 7071,1034 c -12,-15 -21,-34 -21,-44 0,-32 39,-70 71,-70 34,0 79,39 79,68 0,35 -38,72 -75,72 -24,0 -39,-7 -54,-26 z"
   id="path23"
   sodipodi:insensitive="true" />
	<path
   d="m 8236,954 c -33,-32 -38,-54 -21,-80 34,-52 105,-51 139,1 13,20 13,26 0,51 -8,16 -21,32 -27,36 -21,13 -75,9 -91,-8 z"
   id="path24"
   sodipodi:insensitive="true" />
	<path
   d="m 8640,735 c -20,-21 -22,-30 -14,-52 5,-15 23,-35 41,-46 29,-17 34,-17 62,-2 52,27 64,67 31,103 -30,32 -89,30 -120,-3 z"
   id="path25"
   sodipodi:nodetypes="cccccc"
   sodipodi:insensitive="true" />
	<path
   d="m 7276,544 c -29,-28 -37,-53 -26,-73 14,-28 50,-51 78,-51 29,0 72,42 72,70 0,53 -88,91 -124,54 z"
   id="path26"
   sodipodi:insensitive="true" />
</g><circle
     style="fill:#000000"
     id="path56"
     cx="655.91901"
     cy="308.14478"
     r="17.88957" /><circle
     style="fill:#000000"
     id="path57"
     cx="696.26996"
     cy="277.33496"
     r="12.125154" /><circle
     style="fill:#000000"
     id="path58"
     cx="746.95703"
     cy="256.46381"
     r="8.3484659" /><circle
     style="fill:#000000"
     id="path59"
     cx="797.24664"
     cy="260.63803"
     r="11.727608" /><circle
     style="fill:#000000"
     id="path60"
     cx="853.10181"
     cy="289.06256"
     r="17.492025" /><circle
     style="fill:#000000"
     id="path61"
     cx="893.05518"
     cy="323.05276"
     r="10.534969" /><circle
     style="fill:#000000"
     id="path62"
     cx="820.50305"
     cy="322.854"
     r="11.528834" /><circle
     style="fill:#000000"
     id="path63"
     cx="858.07117"
     cy="339.35214"
     r="7.3546014" /><circle
     style="fill:#000000"
     id="path64"
     cx="789.09692"
     cy="298.20615"
     r="7.9509201" /><circle
     style="fill:#000000"
     id="path65"
     cx="717.53864"
     cy="315.69815"
     r="7.9509201" /><circle
     style="fill:#000000"
     id="path66"
     cx="757.29327"
     cy="299.39877"
     r="10.733743" /><circle
     style="fill:#000000"
     id="path67"
     cx="629.48218"
     cy="348.09814"
     r="8.1496935" /><circle
     style="fill:#000000"
     id="path68"
     cx="677.18774"
     cy="359.22943"
     r="7.3546014" /><circle
     style="fill:#000000"
     id="path69"
     cx="709.19019"
     cy="350.28467"
     r="11.92638" /><circle
     style="fill:#000000"
     id="path70"
     cx="644.3902"
     cy="385.26871"
     r="16.696932" /><circle
     style="fill:#000000"
     id="path71"
     cx="691.89691"
     cy="417.27118"
     r="11.727608" /><circle
     style="fill:#000000"
     id="path72"
     cx="731.85034"
     cy="436.94971"
     r="7.5533743" /><circle
     style="fill:#000000"
     id="path73"
     cx="712.56934"
     cy="386.66013"
     r="8.1496935" /><circle
     style="fill:#000000"
     id="path74"
     cx="746.16199"
     cy="400.37546"
     r="11.131289" /><circle
     style="fill:#000000"
     id="path75"
     cx="795.45764"
     cy="384.87115"
     r="11.528834" /><circle
     style="fill:#000000"
     id="path76"
     cx="827.46014"
     cy="396.20123"
     r="7.7521472" /><circle
     style="fill:#000000"
     id="path77"
     cx="870.7926"
     cy="414.88589"
     r="7.7521472" /><circle
     style="fill:#000000"
     id="path78"
     cx="829.44788"
     cy="433.96808"
     r="16.895706" /><circle
     style="fill:#000000"
     id="path79"
     cx="826.26746"
     cy="472.53006"
     r="11.727608" /><circle
     style="fill:#000000"
     id="path80"
     cx="783.33252"
     cy="433.173"
     r="11.727608" /><circle
     style="fill:#000000"
     id="path81"
     cx="753.91412"
     cy="344.52026"
     r="18.088343" /><circle
     style="fill:#000000"
     id="path82"
     cx="852.90308"
     cy="371.15582"
     r="11.727608" /><circle
     style="fill:#000000"
     id="path83"
     cx="896.22333"
     cy="375.92639"
     r="16.895706" /><circle
     style="fill:#000000"
     id="path84"
     cx="799.83069"
     cy="345.91165"
     r="7.5533743" /></g><g
   id="g96"><path
     style="fill:#000000"
     id="path85"
     d="m 669.43388,302.36604 c 3.65931,-1.92854 6.95111,-4.4409 10.2992,-6.84891 3.83602,-2.70884 7.60015,-5.53392 11.67178,-7.88452 1.08309,-0.73898 2.41753,-1.05422 3.46988,-1.8428 0.29863,-0.22377 0.55872,-0.49483 0.83808,-0.74224 3.58525,-3.96429 -2.0211,-9.03461 -5.60635,-5.07032 v 0 c 0.21068,-0.17148 0.41443,-0.35185 0.63205,-0.51444 0.0131,-0.01 0.0634,-0.002 0.0489,0.006 -1.05123,0.55084 -2.16061,0.99231 -3.17084,1.62283 -4.28071,2.48584 -8.26851,5.42039 -12.29712,8.28908 -3.21639,2.31331 -6.37329,4.72813 -9.89184,6.57554 -4.5326,2.83288 -0.52631,9.24294 4.00629,6.41007 z" /><path
     style="fill:#000000"
     id="path86"
     d="m 655.38842,396.12396 c 3.84167,1.67655 7.27803,4.12219 10.72231,6.48002 3.46447,2.41608 6.9229,4.85152 10.15863,7.57102 1.2503,1.08208 2.44674,2.22765 3.74408,3.25288 0.15441,0.12126 0.30882,0.24252 0.46323,0.36378 4.20489,3.29978 8.87148,-2.64684 4.66659,-5.94662 v 0 c -0.17514,-0.13735 -0.35028,-0.2747 -0.52542,-0.41206 -1.25692,-0.8911 -2.27509,-2.11145 -3.49495,-3.05302 -3.43256,-2.86662 -7.07023,-5.47038 -10.74506,-8.01546 -3.90171,-2.66585 -7.81108,-5.40678 -12.18205,-7.25895 -4.96276,-1.98511 -7.77013,5.0333 -2.80736,7.01841 z" /><path
     style="fill:#000000"
     id="path87"
     d="m 719.5505,354.29323 c 2.56062,-0.60729 5.09078,-1.32478 7.66538,-1.87603 2.53838,-0.51119 5.05061,-1.10277 7.53196,-1.84139 1.55228,-0.45482 3.14177,-0.79324 4.73689,-1.06128 5.26931,-0.89669 4.0012,-8.34862 -1.26811,-7.45193 v 0 c -1.89417,0.32542 -3.78248,0.72361 -5.62611,1.26855 -2.29387,0.68335 -4.61735,1.22343 -6.96456,1.6961 -2.53762,0.54826 -5.03965,1.22779 -7.5579,1.85372 -5.24126,1.04825 -3.75881,8.46052 1.48245,7.41226 z" /><path
     style="fill:#000000"
     id="path88"
     d="m 753.49536,304.47851 c -0.22733,2.45172 -0.28816,4.91406 -0.44042,7.37123 -0.0355,2.55071 -0.36691,5.06824 -0.70022,7.59122 -0.25746,1.68048 -0.66906,3.32857 -0.93572,5.00721 -0.1471,1.16518 -0.41086,2.30812 -0.5544,3.47432 -0.21106,0.92759 -0.35064,1.86756 -0.44497,2.81349 -0.0134,0.21987 -0.0267,0.43974 -0.0401,0.6596 -0.29985,5.33665 7.2473,5.7607 7.54715,0.42405 v 0 c 0.006,-0.1194 0.0114,-0.2388 0.0171,-0.35819 0.0811,-0.89522 0.2763,-1.77005 0.42801,-2.65507 0.11485,-1.07106 0.41001,-2.1133 0.51485,-3.18621 0.2686,-1.73989 0.72881,-3.44306 0.96211,-5.18996 0.35559,-2.69604 0.70179,-5.38891 0.75078,-8.11319 0.14239,-2.30021 0.2107,-4.60392 0.3965,-6.90092 0.66297,-5.30378 -6.83771,-6.24137 -7.50068,-0.93758 z" /><path
     style="fill:#000000"
     id="path89"
     d="m 805.48193,266.46853 c 2.06955,0.96149 4.05111,2.08542 6.03593,3.2065 2.09772,1.2478 4.06373,2.69599 6.10279,4.03392 2.2332,1.50111 4.54589,2.88147 6.87798,4.22316 1.66603,0.97451 3.27684,2.03225 4.97252,2.95613 1.47796,0.66651 2.75826,1.61437 4.06918,2.54862 1.09665,0.90722 2.32949,1.62583 3.53261,2.38007 0.55198,0.40093 0.2414,0.18382 0.93759,0.64288 4.47281,2.92637 8.61133,-3.39913 4.13852,-6.3255 v 0 c -0.58995,-0.38099 -0.2326,-0.14448 -1.06291,-0.72312 -1.0796,-0.67588 -2.18449,-1.30733 -3.16078,-2.13151 -1.55863,-1.10918 -3.11005,-2.2133 -4.84694,-3.03425 -1.64537,-0.88974 -3.19399,-1.93668 -4.81536,-2.86835 -2.20644,-1.26446 -4.39015,-2.57217 -6.50054,-3.99144 -2.17992,-1.42502 -4.27294,-2.9828 -6.52763,-4.29263 -2.19517,-1.23943 -4.39125,-2.4756 -6.68294,-3.53203 -4.88438,-2.17084 -7.9544,4.73671 -3.07002,6.90755 z" /><path
     style="fill:#000000"
     id="path90"
     d="m 859.90464,298.86655 c 1.75021,1.9362 3.77481,3.60864 5.73153,5.33145 1.61822,1.37828 3.39697,2.54874 5.13695,3.76433 1.81807,1.32342 3.88382,2.35515 5.56612,3.85763 1.36465,1.22624 2.68265,2.50261 4.02664,3.75122 1.06288,1.05797 2.19179,2.0518 3.34033,3.01584 0.7937,0.61001 1.64135,1.14239 2.48233,1.68299 4.5055,2.87579 8.57248,-3.49594 4.06698,-6.37173 v 0 c -0.58178,-0.36682 -1.15354,-0.74715 -1.72447,-1.13021 -1.05611,-0.8543 -2.05131,-1.79132 -3.02384,-2.73819 -1.42789,-1.32281 -2.82055,-2.68351 -4.278,-3.97424 -1.92432,-1.59196 -4.04873,-2.91077 -6.12781,-4.29051 -1.50908,-1.05366 -3.0526,-2.06684 -4.47145,-3.24176 -1.57224,-1.38285 -3.14574,-2.76523 -4.67806,-4.19226 -3.20704,-4.27604 -9.25428,0.25939 -6.04725,4.53544 z" /><path
     style="fill:#000000"
     id="path91"
     d="m 840.20534,297.40911 c -2.06873,2.03126 -4.09497,4.10244 -6,6.28841 -2.14492,2.42778 -4.34227,4.81395 -6.65474,7.08351 -1.24186,1.19328 -2.51245,2.356 -3.77018,3.53241 -3.90352,3.65132 1.26022,9.17174 5.16375,5.52041 v 0 c 1.30382,-1.21965 2.62156,-2.42454 3.90704,-3.66367 2.44931,-2.4136 4.79073,-4.93623 7.06241,-7.51737 1.77952,-2.05972 3.70172,-3.98562 5.63678,-5.89864 3.77953,-3.77953 -1.56553,-9.12459 -5.34506,-5.34506 z" /><path
     style="fill:#000000"
     id="path92"
     d="m 861.57585,375.92922 c 2.94178,0.0216 5.88492,-0.0503 8.82551,0.0457 2.24375,0.21542 4.49506,0.36673 6.72462,0.70391 0.79497,0.12383 0.4782,0.0421 0.96351,0.18642 5.1934,1.2642 6.98125,-6.08039 1.78785,-7.34459 v 0 c -1.12756,-0.25679 -0.58394,-0.15448 -1.62891,-0.31708 -2.52328,-0.37662 -5.06934,-0.56713 -7.61034,-0.78401 -3.01982,-0.0912 -6.04132,-0.035 -9.06224,-0.0494 -5.34506,0 -5.34506,7.55905 0,7.55905 z" /><path
     style="fill:#000000"
     id="path93"
     d="m 797.04592,393.39466 c 1.32557,2.05698 2.62935,4.12836 3.97181,6.17453 1.32586,2.15913 2.72958,4.26852 4.07369,6.41476 1.56478,2.50717 3.12765,5.0199 4.80581,7.45296 1.33672,2.03615 2.73099,4.01385 4.27797,5.89503 0.72766,0.9868 1.39169,2.0189 2.05518,3.05045 0.49653,0.67056 0.96715,1.35407 1.4449,2.03717 3.07552,4.37159 9.25789,0.0222 6.18237,-4.34944 v 0 c -0.43131,-0.60748 -0.84057,-1.22871 -1.29653,-1.81823 -0.82646,-1.25555 -1.6174,-2.53723 -2.54747,-3.72118 -1.41552,-1.72131 -2.68009,-3.53607 -3.90383,-5.39998 -1.62745,-2.33348 -3.1078,-4.76959 -4.62317,-7.17671 -1.38004,-2.17946 -2.78886,-4.34055 -4.15003,-6.53344 -1.62363,-2.47116 -3.10049,-5.05778 -4.94564,-7.37098 -3.77953,-3.77953 -9.12459,1.56553 -5.34506,5.34506 z" /><path
     style="fill:#000000"
     id="path94"
     d="m 790.86021,437.15131 c 3.02573,0 6.05146,0 9.0772,0 2.32004,0 4.64008,0 6.96013,0 1.97134,0 3.94269,0 5.91403,0 1.1082,0.0241 2.21939,-0.0491 3.32507,0.0397 5.33398,0.34393 5.82038,-7.19946 0.48639,-7.54339 v 0 c -1.27004,-0.0717 -2.53944,-0.0616 -3.81146,-0.0554 -1.97134,0 -3.94269,0 -5.91403,0 -2.32005,0 -4.64009,0 -6.96013,0 -3.02574,0 -6.05147,0 -9.0772,0 -5.34506,0 -5.34506,7.55906 0,7.55906 z" /><path
     style="fill:#000000"
     id="path95"
     d="m 824.65609,446.79998 c -0.15847,1.34606 -0.24942,2.6967 -0.41834,4.04144 -0.19175,1.61801 -0.25399,3.24468 -0.42712,4.86433 -0.11571,1.35269 -0.1882,2.69268 -0.5014,4.01477 -0.18411,0.78433 -0.0947,0.38805 -0.26779,1.18892 -1.12331,5.22569 6.26693,6.81429 7.39024,1.5886 v 0 c 0.14224,-0.66624 0.0633,-0.31197 0.23941,-1.06219 0.3744,-1.62556 0.54278,-3.26486 0.65583,-4.92723 0.16806,-1.57442 0.2407,-3.15394 0.41128,-4.72773 0.16811,-1.3456 0.26922,-2.69577 0.41858,-4.04333 0.66297,-5.30378 -6.83771,-6.24137 -7.50069,-0.93758 z" /><path
     style="fill:#000000"
     id="path96"
     d="m 747.55053,359.45866 c 9.5e-4,2.91971 -0.27421,5.83746 -0.51381,8.74663 -0.21998,3.40083 -0.5739,6.78427 -0.95935,10.1692 -0.30139,2.58134 -0.53143,5.17031 -0.80948,7.75387 -0.15675,0.97526 -0.17309,1.97021 -0.30788,2.94738 -0.0799,0.57906 -0.27754,1.17143 -0.41194,1.73967 -0.0391,0.14824 -0.0782,0.29647 -0.11737,0.44471 -1.35219,5.17119 5.96098,7.08348 7.31317,1.91229 v 0 c 0.0535,-0.20589 0.10695,-0.41177 0.16042,-0.61766 0.43868,-1.85588 0.74066,-3.71944 0.8799,-5.62355 0.27235,-2.56662 0.50648,-5.13735 0.80371,-7.70155 0.39433,-3.46355 0.75479,-6.92636 0.98253,-10.40582 0.25498,-3.11476 0.54144,-6.23883 0.53916,-9.36517 0,-5.34506 -7.55906,-5.34506 -7.55906,0 z" /></g></svg>
