<?xml version="1.0" encoding="UTF-8" standalone="no"?>
<!-- Generator: Adobe Illustrator 19.0.0, SVG Export Plug-In . SVG Version: 6.00 Build 0)  -->

<svg
   version="1.1"
   id="Layer_1"
   x="0px"
   y="0px"
   viewBox="578 202 394 324"
   style="enable-background:new 578 202 394 324;"
   xml:space="preserve"
   sodipodi:docname="logo_loading.svg"
   inkscape:version="1.4.2 (f4327f4, 2025-05-13)"
   xmlns:inkscape="http://www.inkscape.org/namespaces/inkscape"
   xmlns:sodipodi="http://sodipodi.sourceforge.net/DTD/sodipodi-0.dtd"
   xmlns="http://www.w3.org/2000/svg"
   xmlns:svg="http://www.w3.org/2000/svg"><defs
   id="defs26" /><sodipodi:namedview
   id="namedview26"
   pagecolor="#ffffff"
   bordercolor="#000000"
   borderopacity="0.25"
   inkscape:showpageshadow="2"
   inkscape:pageopacity="0.0"
   inkscape:pagecheckerboard="0"
   inkscape:deskcolor="#d1d1d1"
   inkscape:zoom="2.5154321"
   inkscape:cx="232.76319"
   inkscape:cy="148.88098"
   inkscape:window-width="1920"
   inkscape:window-height="1017"
   inkscape:window-x="-8"
   inkscape:window-y="-8"
   inkscape:window-maximized="1"
   inkscape:current-layer="Layer_1" />

<g
   id="g84"><g
     transform="matrix(0.1,0,0,-0.1,0,486)"
     id="g26"
     style="display:none">
	<path
   d="m 7443,2353 c -27,-5 -53,-39 -53,-69 0,-29 45,-64 82,-64 42,0 82,43 73,78 -11,46 -48,66 -102,55 z"
   id="path1"
   sodipodi:nodetypes="csscc"
   sodipodi:insensitive="true" />
	<path
   d="m 7935,2353 c -29,-7 -56,-34 -72,-70 -18,-44 2,-92 50,-121 42,-26 58,-27 119,-5 l 48,17 97,-49 c 160,-80 170,-88 178,-137 3,-24 11,-58 17,-76 14,-46 4,-75 -41,-121 -41,-42 -50,-46 -125,-56 -62,-8 -116,-56 -116,-103 0,-41 39,-94 82,-110 32,-12 40,-12 73,4 52,24 75,66 75,135 0,55 1,58 50,103 50,47 51,47 113,45 34,-2 85,0 113,5 59,9 85,-1 149,-58 22,-20 43,-36 46,-36 11,0 29,-52 29,-85 0,-51 20,-84 61,-106 48,-24 90,-16 130,23 23,23 29,38 29,72 0,74 -43,109 -133,107 -55,-2 -84,12 -149,72 -58,53 -71,83 -56,131 9,28 8,44 -7,83 -24,64 -31,72 -90,99 -63,30 -87,30 -153,-1 -30,-14 -67,-25 -82,-25 -27,0 -175,66 -232,104 -15,10 -38,41 -52,70 -13,28 -33,59 -43,68 -20,18 -77,29 -108,21 z"
   id="path2"
   sodipodi:insensitive="true" />
	
	<path
   d="m 6912,2177 c -34,-19 -55,-55 -64,-111 -6,-44 -14,-57 -55,-93 -27,-23 -65,-50 -86,-59 -36,-17 -41,-17 -85,-1 -60,22 -87,21 -137,-2 -51,-23 -80,-56 -99,-108 -23,-66 -1,-125 66,-173 35,-26 50,-30 102,-30 112,0 176,67 176,186 1,79 6,88 93,153 54,41 60,43 107,38 64,-8 111,12 139,56 26,43 26,67 0,101 -40,51 -108,70 -157,43 z"
   id="path4"
   sodipodi:nodetypes="ccccccccscccccc"
   sodipodi:insensitive="true" />
	
	<path
   d="m 7512,1966 c -30,-16 -62,-65 -62,-95 0,-13 15,-42 33,-65 52,-63 59,-81 51,-132 -7,-46 -45,-104 -68,-104 -25,0 -84,-66 -95,-107 -11,-39 -13,-41 -68,-52 -75,-15 -75,-15 -116,14 -20,13 -54,29 -75,36 -33,9 -44,8 -73,-6 -49,-26 -69,-53 -69,-94 0,-43 20,-75 60,-96 59,-31 101,-17 166,52 40,42 42,43 105,43 h 65 l 58,-59 59,-60 -6,-98 c -8,-127 -21,-164 -74,-202 -53,-38 -71,-86 -49,-130 40,-76 125,-95 184,-41 50,45 53,89 13,146 -31,43 -32,47 -28,122 7,104 20,177 37,197 7,9 30,25 49,35 65,33 111,97 111,152 0,39 -40,105 -80,133 -75,52 -76,159 -1,240 55,60 57,103 5,151 -39,37 -88,45 -132,20 z"
   id="path6"
   sodipodi:insensitive="true" />
	<path
   d="m 7847,1930 c -40,-32 -43,-57 -11,-91 45,-47 102,-36 138,28 10,18 -13,60 -41,72 -35,16 -57,14 -86,-9 z"
   id="path7"
   sodipodi:insensitive="true" />
	
	
	
	
	
	<path
   d="m 7148,1763 c -30,-19 -52,-58 -42,-76 19,-33 50,-57 74,-57 24,0 55,24 74,57 10,18 -13,58 -44,76 -34,20 -29,20 -62,0 z"
   id="path13"
   sodipodi:insensitive="true" />
	
	
	<path
   d="m 8521,1514 c -28,-36 -26,-51 10,-85 36,-33 48,-35 89,-14 29,15 35,29 31,69 -5,59 -92,78 -130,30 z"
   id="path16"
   sodipodi:insensitive="true" />
	<path
   d="m 7945,1445 c -28,-27 -31,-45 -14,-78 16,-30 28,-37 65,-37 36,0 74,35 74,69 0,28 -46,71 -77,71 -13,0 -35,-11 -48,-25 z"
   id="path17"
   sodipodi:insensitive="true" />
	<path
   d="m 6255,1448 c -28,-16 -35,-28 -35,-65 0,-61 79,-85 125,-38 14,13 25,32 25,42 -1,48 -72,87 -115,61 z"
   id="path18"
   sodipodi:insensitive="true" />
	<path
   d="m 6711,1306 c -61,-65 29,-149 101,-94 31,24 33,64 4,92 -32,33 -75,34 -105,2 z"
   id="path19"
   sodipodi:insensitive="true" />
	<path
   d="m 8473,1249 c -17,-11 -38,-35 -48,-54 -15,-32 -15,-38 0,-69 9,-19 25,-42 35,-51 24,-22 89,-29 116,-13 80,49 109,60 142,54 43,-6 69,-29 77,-67 4,-16 26,-46 52,-69 43,-38 50,-40 108,-40 52,0 68,4 102,29 106,77 90,227 -31,282 -76,34 -136,17 -223,-62 -59,-55 -112,-49 -166,17 -53,64 -108,79 -164,43 z"
   id="path20"
   sodipodi:nodetypes="ccccccccsccccc"
   sodipodi:insensitive="true" />
	<path
   d="m 6395,1168 c -57,-31 -105,-101 -105,-153 0,-28 23,-83 47,-111 45,-52 141,-67 219,-34 42,18 70,9 155,-52 74,-53 76,-57 94,-142 10,-47 59,-86 110,-86 36,0 50,6 79,34 30,27 36,40 36,72 -1,73 -48,106 -148,102 l -68,-3 -72,54 c -94,69 -102,82 -102,159 0,53 -4,69 -27,98 -14,20 -43,44 -64,55 -42,21 -122,25 -154,7 z"
   id="path21"
   sodipodi:insensitive="true" />
	<path
   d="m 7890,1104 c -40,-27 -50,-45 -50,-90 0,-35 5,-47 35,-73 20,-17 47,-31 61,-31 41,0 92,-29 115,-66 11,-19 26,-40 32,-47 7,-7 27,-33 45,-59 44,-63 44,-114 1,-157 -27,-27 -37,-31 -88,-31 -58,0 -76,8 -128,56 -28,26 -80,40 -111,30 -11,-4 -34,-21 -51,-38 -55,-56 -32,-143 44,-168 47,-16 87,-5 136,35 66,56 161,59 203,8 12,-15 42,-48 67,-73 77,-78 77,-110 0,-187 -57,-57 -69,-89 -49,-129 16,-34 72,-74 104,-74 60,0 124,58 124,112 0,12 -16,43 -35,67 -40,50 -50,79 -40,113 11,34 32,55 79,78 45,21 74,54 95,108 11,26 11,41 1,76 -22,81 -110,136 -214,136 -61,0 -63,2 -160,145 -47,68 -48,71 -42,128 6,65 -7,104 -46,131 -29,21 -97,20 -128,0 z"
   id="path22"
   sodipodi:nodetypes="cscscccsscccccccscsscccccscccc"
   sodipodi:insensitive="true" />
	<path
   d="m 7071,1034 c -12,-15 -21,-34 -21,-44 0,-32 39,-70 71,-70 34,0 79,39 79,68 0,35 -38,72 -75,72 -24,0 -39,-7 -54,-26 z"
   id="path23"
   sodipodi:insensitive="true" />
	<path
   d="m 8236,954 c -33,-32 -38,-54 -21,-80 34,-52 105,-51 139,1 13,20 13,26 0,51 -8,16 -21,32 -27,36 -21,13 -75,9 -91,-8 z"
   id="path24"
   sodipodi:insensitive="true" />
	<path
   d="m 8640,735 c -20,-21 -22,-30 -14,-52 5,-15 23,-35 41,-46 29,-17 34,-17 62,-2 52,27 64,67 31,103 -30,32 -89,30 -120,-3 z"
   id="path25"
   sodipodi:nodetypes="cccccc"
   sodipodi:insensitive="true" />
	<path
   d="m 7276,544 c -29,-28 -37,-53 -26,-73 14,-28 50,-51 78,-51 29,0 72,42 72,70 0,53 -88,91 -124,54 z"
   id="path26"
   sodipodi:insensitive="true" />
</g><circle
     style="fill:#000000"
     id="path56"
     cx="655.91901"
     cy="308.14478"
     r="17.88957" /><circle
     style="fill:#000000"
     id="path57"
     cx="696.26996"
     cy="277.33496"
     r="12.125154" /><circle
     style="fill:#000000"
     id="path58"
     cx="746.95703"
     cy="256.46381"
     r="8.3484659" /><circle
     style="fill:#000000"
     id="path59"
     cx="797.24664"
     cy="260.63803"
     r="11.727608" /><circle
     style="fill:#000000"
     id="path60"
     cx="853.10181"
     cy="289.06256"
     r="17.492025" /><circle
     style="fill:#000000"
     id="path61"
     cx="893.05518"
     cy="323.05276"
     r="10.534969" /><circle
     style="fill:#000000"
     id="path62"
     cx="820.50305"
     cy="322.854"
     r="11.528834" /><circle
     style="fill:#000000"
     id="path63"
     cx="858.07117"
     cy="339.35214"
     r="7.3546014" /><circle
     style="fill:#000000"
     id="path64"
     cx="789.09692"
     cy="298.20615"
     r="7.9509201" /><circle
     style="fill:#000000"
     id="path65"
     cx="717.53864"
     cy="315.69815"
     r="7.9509201" /><circle
     style="fill:#000000"
     id="path66"
     cx="757.29327"
     cy="299.39877"
     r="10.733743" /><circle
     style="fill:#000000"
     id="path67"
     cx="629.48218"
     cy="348.09814"
     r="8.1496935" /><circle
     style="fill:#000000"
     id="path68"
     cx="677.18774"
     cy="359.22943"
     r="7.3546014" /><circle
     style="fill:#000000"
     id="path69"
     cx="709.19019"
     cy="350.28467"
     r="11.92638" /><circle
     style="fill:#000000"
     id="path70"
     cx="644.3902"
     cy="385.26871"
     r="16.696932" /><circle
     style="fill:#000000"
     id="path71"
     cx="691.89691"
     cy="417.27118"
     r="11.727608" /><circle
     style="fill:#000000"
     id="path72"
     cx="731.85034"
     cy="436.94971"
     r="7.5533743" /><circle
     style="fill:#000000"
     id="path73"
     cx="712.56934"
     cy="386.66013"
     r="8.1496935" /><circle
     style="fill:#000000"
     id="path74"
     cx="746.16199"
     cy="400.37546"
     r="11.131289" /><circle
     style="fill:#000000"
     id="path75"
     cx="795.45764"
     cy="384.87115"
     r="11.528834" /><circle
     style="fill:#000000"
     id="path76"
     cx="827.46014"
     cy="396.20123"
     r="7.7521472" /><circle
     style="fill:#000000"
     id="path77"
     cx="870.7926"
     cy="414.88589"
     r="7.7521472" /><circle
     style="fill:#000000"
     id="path78"
     cx="829.44788"
     cy="433.96808"
     r="16.895706" /><circle
     style="fill:#000000"
     id="path79"
     cx="826.26746"
     cy="472.53006"
     r="11.727608" /><circle
     style="fill:#000000"
     id="path80"
     cx="783.33252"
     cy="433.173"
     r="11.727608" /><circle
     style="fill:#000000"
     id="path81"
     cx="753.91412"
     cy="344.52026"
     r="18.088343" /><circle
     style="fill:#000000"
     id="path82"
     cx="852.90308"
     cy="371.15582"
     r="11.727608" /><circle
     style="fill:#000000"
     id="path83"
     cx="896.22333"
     cy="375.92639"
     r="16.895706" /><circle
     style="fill:#000000"
     id="path84"
     cx="799.83069"
     cy="345.91165"
     r="7.5533743" /></g></svg>
