<?xml version="1.0" standalone="no"?>
<!DOCTYPE svg PUBLIC "-//W3C//DTD SVG 20010904//EN"
 "http://www.w3.org/TR/2001/REC-SVG-20010904/DTD/svg10.dtd">
<svg version="1.0" xmlns="http://www.w3.org/2000/svg"
 width="1731.000000pt" height="486.000000pt" viewBox="0 0 1731.000000 486.000000"
 preserveAspectRatio="xMidYMid meet">
<metadata>
Created by potrace 1.10, written by Peter Selinger 2001-2011
</metadata>
<g transform="translate(0.000000,486.000000) scale(0.100000,-0.100000)"
fill="#000000" stroke="none">
<path d="M1843 3893 c-27 -5 -53 -39 -53 -69 0 -29 45 -64 82 -64 42 0 82 43
73 78 -11 46 -48 66 -102 55z"/>
<path d="M2335 3893 c-29 -7 -56 -34 -72 -70 -18 -44 2 -92 50 -121 42 -26 58
-27 119 -5 l48 17 97 -49 c160 -80 170 -88 178 -137 3 -24 11 -58 17 -76 14
-46 4 -75 -41 -121 -41 -42 -50 -46 -125 -56 -62 -8 -116 -56 -116 -103 0 -41
39 -94 82 -110 32 -12 40 -12 73 4 52 24 75 66 75 135 0 55 1 58 50 103 50 47
51 47 113 45 34 -2 85 0 113 5 59 9 85 -1 149 -58 22 -20 43 -36 46 -36 11 0
29 -52 29 -85 0 -51 20 -84 61 -106 48 -24 90 -16 130 23 23 23 29 38 29 72 0
74 -43 109 -133 107 -55 -2 -84 12 -149 72 -58 53 -71 83 -56 131 9 28 8 44
-7 83 -24 64 -31 72 -90 99 -63 30 -87 30 -153 -1 -30 -14 -67 -25 -82 -25
-27 0 -175 66 -232 104 -15 10 -38 41 -52 70 -13 28 -33 59 -43 68 -20 18 -77
29 -108 21z"/>
<path d="M10315 3742 c-57 -19 -95 -71 -95 -130 0 -89 53 -142 142 -142 47 0
60 4 93 33 32 28 38 40 42 83 7 72 -14 116 -69 143 -44 21 -76 25 -113 13z"/>
<path d="M1312 3717 c-34 -19 -55 -55 -64 -111 -6 -44 -14 -57 -55 -93 -27
-23 -65 -50 -86 -59 -36 -17 -41 -17 -85 -1 -60 22 -87 21 -137 -2 -51 -23
-80 -56 -99 -108 -23 -66 -1 -125 66 -173 35 -26 50 -30 102 -30 112 0 176 67
176 186 1 79 6 88 93 153 54 41 60 43 107 38 64 -8 111 12 139 56 26 43 26 67
0 101 -40 51 -108 70 -157 43z"/>
<path d="M12127 3590 c-48 -4 -91 -10 -95 -14 -4 -4 -9 -62 -12 -129 l-5 -122
-85 -5 -85 -5 0 -100 0 -100 85 -5 85 -5 6 -260 c6 -285 13 -322 69 -407 38
-57 105 -100 185 -118 73 -16 98 -16 198 3 112 21 114 25 80 130 l-28 86 -96
-2 c-109 -2 -121 3 -150 68 -16 35 -19 69 -19 256 0 157 3 220 13 232 10 14
34 17 137 19 l125 3 0 100 0 100 -124 3 c-69 1 -130 7 -138 13 -8 8 -13 50
-15 137 -3 146 10 134 -131 122z"/>
<path d="M1912 3506 c-30 -16 -62 -65 -62 -95 0 -13 15 -42 33 -65 52 -63 59
-81 51 -132 -7 -46 -45 -104 -68 -104 -25 0 -84 -66 -95 -107 -11 -39 -13 -41
-68 -52 -75 -15 -75 -15 -116 14 -20 13 -54 29 -75 36 -33 9 -44 8 -73 -6 -49
-26 -69 -53 -69 -94 0 -43 20 -75 60 -96 59 -31 101 -17 166 52 40 42 42 43
105 43 l65 0 58 -59 59 -60 -6 -98 c-8 -127 -21 -164 -74 -202 -53 -38 -71
-86 -49 -130 40 -76 125 -95 184 -41 50 45 53 89 13 146 -31 43 -32 47 -28
122 7 104 20 177 37 197 7 9 30 25 49 35 65 33 111 97 111 152 0 39 -40 105
-80 133 -75 52 -76 159 -1 240 55 60 57 103 5 151 -39 37 -88 45 -132 20z"/>
<path d="M2247 3470 c-40 -32 -43 -57 -11 -91 45 -47 102 -36 138 28 10 18
-13 60 -41 72 -35 16 -57 14 -86 -9z"/>
<path d="M5980 3331 c-91 -24 -161 -65 -226 -130 -71 -71 -112 -157 -134 -281
-17 -90 -17 -100 0 -190 19 -101 34 -149 59 -190 67 -110 159 -181 291 -222
88 -28 290 -30 371 -3 114 37 211 91 230 127 10 18 2 29 -57 89 -38 38 -72 69
-76 69 -4 0 -29 -13 -55 -28 -126 -73 -301 -75 -416 -5 -46 29 -99 108 -95
143 l3 25 385 5 385 5 7 40 c8 47 -6 180 -27 248 -46 154 -160 260 -322 302
-78 21 -240 19 -323 -4z m279 -212 c69 -25 79 -33 119 -88 35 -48 41 -85 16
-95 -9 -3 -125 -6 -259 -6 -186 0 -245 3 -253 13 -16 19 39 110 85 138 94 60
198 73 292 38z"/>
<path d="M9775 3335 c-27 -8 -53 -14 -56 -15 -4 0 -30 -21 -58 -46 -52 -47
-71 -50 -71 -10 0 50 -17 57 -130 54 l-105 -3 0 -495 0 -495 103 -3 c59 -2
110 2 122 8 19 10 20 21 20 298 1 309 4 331 55 398 40 52 104 77 195 78 59 1
85 -4 121 -21 25 -13 51 -23 57 -23 6 0 25 27 41 60 17 33 37 70 46 83 23 33
18 53 -17 81 -73 55 -227 79 -323 51z"/>
<path d="M4915 3325 c-74 -18 -116 -39 -174 -85 -28 -22 -55 -38 -60 -36 -5 3
-12 23 -16 43 -13 71 -16 73 -118 73 -59 0 -97 -4 -105 -12 -9 -9 -12 -131
-12 -490 0 -462 1 -478 19 -488 28 -14 204 -13 219 2 9 9 12 84 12 278 0 290
6 332 57 399 61 80 118 105 225 100 64 -4 79 -8 119 -37 30 -22 56 -52 73 -85
l26 -52 0 -296 c0 -216 3 -298 12 -307 14 -14 205 -17 227 -3 11 7 12 67 9
337 l-5 329 -30 73 c-61 144 -158 228 -298 258 -74 16 -115 16 -180 -1z"/>
<path d="M8530 3326 c-57 -16 -116 -49 -157 -88 -17 -17 -37 -28 -45 -26 -7 3
-18 27 -24 54 l-10 49 -90 3 c-49 2 -99 0 -111 -3 l-23 -5 0 -699 0 -699 23
-6 c29 -8 175 -8 205 0 l22 6 0 244 c0 139 4 245 9 249 5 3 35 -13 67 -35 32
-22 67 -40 78 -40 12 -1 32 -7 46 -15 17 -10 57 -14 125 -15 269 -1 456 154
502 415 17 94 17 108 2 200 -20 115 -81 231 -159 303 -43 38 -142 90 -206 106
-73 19 -191 19 -254 2z m215 -241 c50 -21 110 -78 138 -130 31 -60 31 -203 -1
-265 -32 -61 -68 -97 -127 -127 -65 -34 -192 -37 -246 -7 -120 67 -164 139
-164 269 0 66 5 89 25 129 31 61 95 118 157 139 58 20 159 16 218 -8z"/>
<path d="M11195 3329 c-63 -14 -115 -40 -178 -86 -59 -44 -77 -47 -77 -12 0
11 -7 35 -14 54 l-15 35 -93 0 c-60 0 -98 -4 -106 -12 -9 -9 -12 -131 -12
-490 0 -462 1 -478 19 -488 28 -14 204 -13 219 2 9 9 12 84 12 278 0 290 6
332 57 399 61 80 118 105 225 100 63 -4 79 -8 119 -37 27 -19 57 -53 72 -82
l27 -50 0 -300 c0 -286 1 -300 19 -310 24 -12 200 -13 220 -1 11 7 12 68 9
337 l-5 329 -30 73 c-61 144 -158 228 -298 258 -69 15 -113 16 -170 3z"/>
<path d="M1548 3303 c-30 -19 -52 -58 -42 -76 19 -33 50 -57 74 -57 24 0 55
24 74 57 10 18 -13 58 -44 76 -34 20 -29 20 -62 0z"/>
<path d="M6867 3314 c-4 -4 -7 -152 -7 -328 0 -272 2 -329 16 -371 54 -163
139 -252 284 -297 131 -42 276 -8 398 90 l42 34 15 -35 c8 -20 15 -43 15 -50
0 -30 27 -38 121 -35 l94 3 0 495 0 495 -115 0 -115 0 -6 -290 c-6 -333 -8
-342 -85 -421 -66 -68 -123 -85 -236 -70 -50 6 -64 13 -102 51 -80 77 -80 80
-86 425 l-5 305 -111 3 c-60 1 -113 -1 -117 -4z"/>
<path d="M10247 3314 c-4 -4 -7 -224 -7 -489 0 -361 3 -484 12 -493 17 -17
189 -16 211 1 16 11 17 50 15 497 l-3 485 -111 3 c-60 1 -113 -1 -117 -4z"/>
<path d="M2921 3054 c-28 -36 -26 -51 10 -85 36 -33 48 -35 89 -14 29 15 35
29 31 69 -5 59 -92 78 -130 30z"/>
<path d="M2345 2985 c-28 -27 -31 -45 -14 -78 16 -30 28 -37 65 -37 36 0 74
35 74 69 0 28 -46 71 -77 71 -13 0 -35 -11 -48 -25z"/>
<path d="M655 2988 c-28 -16 -35 -28 -35 -65 0 -61 79 -85 125 -38 14 13 25
32 25 42 -1 48 -72 87 -115 61z"/>
<path d="M1111 2846 c-61 -65 29 -149 101 -94 31 24 33 64 4 92 -32 33 -75 34
-105 2z"/>
<path d="M2873 2789 c-17 -11 -38 -35 -48 -54 -15 -32 -15 -38 0 -69 9 -19 25
-42 35 -51 24 -22 89 -29 116 -13 80 49 109 60 142 54 43 -6 69 -29 77 -67 4
-16 26 -46 52 -69 43 -38 50 -40 108 -40 52 0 68 4 102 29 106 77 90 227 -31
282 -76 34 -136 17 -223 -62 -59 -55 -112 -49 -166 17 -53 64 -108 79 -164 43z"/>
<path d="M795 2708 c-57 -31 -105 -101 -105 -153 0 -28 23 -83 47 -111 45 -52
141 -67 219 -34 42 18 70 9 155 -52 74 -53 76 -57 94 -142 10 -47 59 -86 110
-86 36 0 50 6 79 34 30 27 36 40 36 72 -1 73 -48 106 -148 102 l-68 -3 -72 54
c-94 69 -102 82 -102 159 0 53 -4 69 -27 98 -14 20 -43 44 -64 55 -42 21 -122
25 -154 7z"/>
<path d="M2290 2644 c-40 -27 -50 -45 -50 -90 0 -35 5 -47 35 -73 20 -17 47
-31 61 -31 41 0 92 -29 115 -66 11 -19 26 -40 32 -47 7 -7 27 -33 45 -59 44
-63 44 -114 1 -157 -27 -27 -37 -31 -88 -31 -58 0 -76 8 -128 56 -28 26 -80
40 -111 30 -11 -4 -34 -21 -51 -38 -55 -56 -32 -143 44 -168 47 -16 87 -5 136
35 66 56 161 59 203 8 12 -15 42 -48 67 -73 77 -78 77 -110 0 -187 -57 -57
-69 -89 -49 -129 16 -34 72 -74 104 -74 60 0 124 58 124 112 0 12 -16 43 -35
67 -40 50 -50 79 -40 113 11 34 32 55 79 78 45 21 74 54 95 108 11 26 11 41 1
76 -22 81 -110 136 -214 136 -61 0 -63 2 -160 145 -47 68 -48 71 -42 128 6 65
-7 104 -46 131 -29 21 -97 20 -128 0z"/>
<path d="M1471 2574 c-12 -15 -21 -34 -21 -44 0 -32 39 -70 71 -70 34 0 79 39
79 68 0 35 -38 72 -75 72 -24 0 -39 -7 -54 -26z"/>
<path d="M2636 2494 c-33 -32 -38 -54 -21 -80 34 -52 105 -51 139 1 13 20 13
26 0 51 -8 16 -21 32 -27 36 -21 13 -75 9 -91 -8z"/>
<path d="M3040 2275 c-20 -21 -22 -30 -14 -52 5 -15 23 -35 41 -46 29 -17 34
-17 62 -2 52 27 64 67 31 103 -30 32 -89 30 -120 -3z"/>
<path d="M1676 2084 c-29 -28 -37 -53 -26 -73 14 -28 50 -51 78 -51 29 0 72
42 72 70 0 53 -88 91 -124 54z"/>
</g>
</svg>
